<svg width="369" height="56" viewBox="0 0 369 56" fill="none" xmlns="http://www.w3.org/2000/svg">
<path d="M13.255 5.81C10.9083 6.17667 9.075 7.22167 7.755 8.945C6.435 10.6683 5.775 13.2533 5.775 16.7C5.775 18.0567 5.90333 19.01 6.16 19.56C6.41667 20.0733 6.545 20.3667 6.545 20.44C4.565 20.44 3.08 20.0367 2.09 19.23C1.13667 18.3867 0.66 17.0117 0.66 15.105C0.66 12.5017 1.30167 10.1367 2.585 8.01C3.86833 5.84666 5.90333 4.105 8.69 2.785C11.5133 1.465 15.0883 0.804999 19.415 0.804999C21.1383 0.804999 22.825 0.896666 24.475 1.08C26.125 1.26333 27.1333 1.37333 27.5 1.41C30.91 1.88667 34.0633 2.125 36.96 2.125C39.3067 2.125 41.4333 1.74 43.34 0.969997C43.23 5.59 41.03 7.91833 36.74 7.955L29.425 42H21.505L28.985 7.295L24.695 6.635C22.9717 6.305 21.78 6.10333 21.12 6.03L13.42 42H5.5L13.255 5.81ZM42.0462 12.465H49.9662L49.0862 16.59C50.9195 15.0133 53.0645 14.225 55.5212 14.225C57.5745 14.225 59.2062 14.9033 60.4162 16.26C61.6262 17.6167 62.2312 19.835 62.2312 22.915C62.2312 25.8117 61.8095 28.745 60.9662 31.715C60.1229 34.6483 58.6929 37.16 56.6762 39.25C54.6595 41.3033 52.0012 42.33 48.7012 42.33C46.3545 42.33 44.7962 41.67 44.0262 40.35L41.1662 53.77L32.8612 55.75L42.0462 12.465ZM46.9962 37.545C48.7562 37.545 50.2045 36.72 51.3412 35.07C52.5145 33.42 53.3579 31.4583 53.8712 29.185C54.4212 26.875 54.6962 24.73 54.6962 22.75C54.6962 19.7067 53.7795 18.185 51.9462 18.185C51.2862 18.185 50.6079 18.4233 49.9112 18.9C49.2512 19.3767 48.6645 20.0367 48.1512 20.88L44.9062 36.28C45.1995 37.1233 45.8962 37.545 46.9962 37.545ZM69.0388 42.33C67.2788 42.33 65.8488 41.78 64.7488 40.68C63.6854 39.58 63.1537 37.93 63.1537 35.73C63.1537 34.8133 63.3004 33.6217 63.5938 32.155L67.3338 14.5H75.2538L71.2938 33.2C71.1838 33.75 71.1288 34.2633 71.1288 34.74C71.1288 36.2433 71.6788 36.995 72.7788 36.995C73.8054 36.995 74.6854 36.5733 75.4188 35.73C76.1521 34.85 76.7388 33.6583 77.1788 32.155L80.9188 14.5H88.8388L84.8788 33.2C84.7321 33.75 84.6588 34.3367 84.6588 34.96C84.6588 35.6933 84.8238 36.225 85.1538 36.555C85.5204 36.8483 86.1071 36.995 86.9138 36.995C87.9404 36.995 88.8204 36.555 89.5538 35.675C90.3238 34.795 90.9288 33.6217 91.3687 32.155H93.6788C92.3221 36.115 90.6354 38.81 88.6188 40.24C86.6388 41.6333 84.6404 42.33 82.6238 42.33C81.0471 42.33 79.7821 41.89 78.8288 41.01C77.9121 40.13 77.3621 38.8283 77.1788 37.105C75.9321 39.1217 74.6121 40.4967 73.2188 41.23C71.8621 41.9633 70.4688 42.33 69.0388 42.33ZM111.327 42.33C109.237 42.33 107.624 41.78 106.487 40.68C105.387 39.5433 104.837 38.15 104.837 36.5C104.837 35.4367 105.259 32.87 106.102 28.8H99.9973L97.1923 42H89.2723L95.1023 14.5H103.022L100.657 25.5H106.817L109.292 14.5H116.662L113.747 28.14C113.381 29.7167 113.069 31.0917 112.812 32.265C112.556 33.4383 112.427 34.245 112.427 34.685C112.427 36.225 113.161 36.995 114.627 36.995C115.654 36.995 116.479 36.6467 117.102 35.95C117.726 35.2533 118.441 33.9883 119.247 32.155H121.557C119.247 38.9383 115.837 42.33 111.327 42.33ZM127.103 42.33C124.39 42.33 122.282 41.6333 120.778 40.24C119.275 38.81 118.523 36.5917 118.523 33.585C118.523 31.055 119.018 28.2683 120.008 25.225C120.998 22.1817 122.612 19.56 124.848 17.36C127.085 15.1233 129.927 14.005 133.373 14.005C137.407 14.005 139.423 15.765 139.423 19.285C139.423 21.3383 138.837 23.2267 137.663 24.95C136.49 26.6733 134.932 28.0667 132.988 29.13C131.045 30.1567 128.973 30.7433 126.773 30.89C126.7 31.99 126.663 32.7233 126.663 33.09C126.663 34.8867 126.975 36.115 127.598 36.775C128.222 37.3983 129.23 37.71 130.623 37.71C132.603 37.71 134.29 37.2517 135.683 36.335C137.113 35.4183 138.672 34.025 140.358 32.155H142.228C138.158 38.9383 133.117 42.33 127.103 42.33ZM127.213 28.25C128.57 28.1767 129.853 27.7 131.063 26.82C132.31 25.94 133.3 24.8217 134.033 23.465C134.803 22.1083 135.188 20.6783 135.188 19.175C135.188 17.6717 134.73 16.92 133.813 16.92C132.493 16.92 131.192 18.075 129.908 20.385C128.662 22.695 127.763 25.3167 127.213 28.25ZM148.212 42.33C145.498 42.33 143.39 41.6333 141.887 40.24C140.383 38.81 139.632 36.5917 139.632 33.585C139.632 31.055 140.127 28.2683 141.117 25.225C142.143 22.1817 143.757 19.56 145.957 17.36C148.193 15.1233 151.017 14.005 154.427 14.005C156.627 14.005 158.185 14.4817 159.102 15.435C160.055 16.3883 160.532 17.5983 160.532 19.065C160.532 20.3483 160.257 21.3383 159.707 22.035C159.157 22.7317 158.46 23.08 157.617 23.08C156.993 23.08 156.352 22.86 155.692 22.42C156.132 21.21 156.352 20.1283 156.352 19.175C156.352 18.4783 156.223 17.9283 155.967 17.525C155.71 17.1217 155.325 16.92 154.812 16.92C153.712 16.92 152.612 17.8183 151.512 19.615C150.412 21.4117 149.513 23.5933 148.817 26.16C148.12 28.7267 147.772 31.0367 147.772 33.09C147.772 34.8867 148.083 36.115 148.707 36.775C149.33 37.3983 150.338 37.71 151.732 37.71C153.712 37.71 155.398 37.2517 156.792 36.335C158.222 35.4183 159.78 34.025 161.467 32.155H163.337C159.267 38.9383 154.225 42.33 148.212 42.33ZM166.9 42.33C165.14 42.33 163.71 41.78 162.61 40.68C161.547 39.58 161.015 37.93 161.015 35.73C161.015 34.8133 161.162 33.6217 161.455 32.155L165.195 14.5H173.115L169.155 33.2C169.045 33.64 168.99 34.0983 168.99 34.575C168.99 36.1883 169.54 36.995 170.64 36.995C171.667 36.995 172.547 36.5733 173.28 35.73C174.013 34.85 174.6 33.6583 175.04 32.155L178.78 14.5H186.7L182.74 33.2C182.593 33.75 182.52 34.3367 182.52 34.96C182.52 35.6933 182.685 36.225 183.015 36.555C183.382 36.8483 183.968 36.995 184.775 36.995C185.362 36.995 185.783 36.9583 186.04 36.885C186.333 36.775 186.517 36.7017 186.59 36.665C186.443 38.535 185.802 39.9467 184.665 40.9C183.528 41.8533 182.135 42.33 180.485 42.33C178.945 42.33 177.698 41.8717 176.745 40.955C175.828 40.0383 175.278 38.755 175.095 37.105C173.848 39.1217 172.528 40.4967 171.135 41.23C169.778 41.9633 168.367 42.33 166.9 42.33ZM222.834 19.725C222.944 20.165 222.999 20.5867 222.999 20.99C222.999 22.2733 222.504 23.4833 221.514 24.62C220.561 25.7567 219.351 26.5633 217.884 27.04C217.261 27.2233 216.528 27.315 215.684 27.315C215.354 30.4317 214.419 33.1817 212.879 35.565C211.376 37.9117 209.396 39.745 206.939 41.065C204.483 42.3483 201.733 42.99 198.689 42.99C195.206 42.99 192.456 42.11 190.439 40.35C188.459 38.59 187.469 36.2067 187.469 33.2C187.469 31.1833 187.909 29.2033 188.789 27.26C189.706 25.28 190.934 23.575 192.474 22.145C194.051 20.715 195.774 19.725 197.644 19.175V18.955C196.508 18.0017 195.701 16.9933 195.224 15.93C194.748 14.8667 194.509 13.5467 194.509 11.97C194.509 9.99 195.041 8.13833 196.104 6.415C197.204 4.655 198.671 3.26166 200.504 2.235C202.374 1.17166 204.391 0.639998 206.554 0.639998C209.048 0.639998 211.101 1.355 212.714 2.785C214.328 4.215 215.134 6.03 215.134 8.23C215.134 9.73333 214.749 10.9617 213.979 11.915C213.209 12.8683 212.201 13.345 210.954 13.345C209.561 13.345 208.443 12.7767 207.599 11.64C208.259 11.2367 208.791 10.6133 209.194 9.77C209.634 8.92667 209.854 8.02833 209.854 7.075C209.854 6.04833 209.598 5.24166 209.084 4.655C208.571 4.06833 207.874 3.775 206.994 3.775C206.041 3.775 205.124 4.14166 204.244 4.875C203.364 5.60833 202.649 6.59833 202.099 7.845C201.586 9.055 201.329 10.3383 201.329 11.695C201.329 13.5283 201.824 15.0867 202.814 16.37C203.804 17.6167 205.161 18.46 206.884 18.9V19.12C205.161 19.45 203.529 20.2567 201.989 21.54C200.486 22.7867 199.276 24.3267 198.359 26.16C197.479 27.9567 197.039 29.79 197.039 31.66C197.039 33.5667 197.516 35.0517 198.469 36.115C199.423 37.1783 200.743 37.71 202.429 37.71C204.006 37.71 205.564 37.27 207.104 36.39C208.644 35.51 209.964 34.2817 211.064 32.705C212.164 31.1283 212.898 29.35 213.264 27.37C212.458 27.37 211.614 27.48 210.734 27.7C208.718 28.36 207.269 29.3317 206.389 30.615L206.224 30.67C205.821 30.1567 205.491 29.4967 205.234 28.69C205.088 28.25 205.014 27.7733 205.014 27.26C205.014 26.0133 205.454 24.895 206.334 23.905C207.214 22.915 208.314 22.2183 209.634 21.815C210.661 21.5217 212.073 21.3017 213.869 21.155C215.079 21.0817 216.124 20.9533 217.004 20.77C217.848 20.5133 218.691 20.0917 219.534 19.505C220.414 18.8817 221.074 18.2767 221.514 17.69H221.624C222.174 18.24 222.578 18.9183 222.834 19.725ZM237.444 5.81C235.098 6.17667 233.264 7.22167 231.944 8.945C230.624 10.6683 229.964 13.2533 229.964 16.7C229.964 18.0567 230.093 19.01 230.349 19.56C230.606 20.0733 230.734 20.3667 230.734 20.44C228.754 20.44 227.269 20.0367 226.279 19.23C225.326 18.3867 224.849 17.0117 224.849 15.105C224.849 12.5017 225.491 10.1367 226.774 8.01C228.058 5.84666 230.093 4.105 232.879 2.785C235.703 1.465 239.278 0.804999 243.604 0.804999C245.328 0.804999 247.014 0.896666 248.664 1.08C250.314 1.26333 251.323 1.37333 251.689 1.41C255.099 1.88667 258.253 2.125 261.149 2.125C263.496 2.125 265.623 1.74 267.529 0.969997C267.419 5.59 265.219 7.91833 260.929 7.955L253.614 42H245.694L253.174 7.295L248.884 6.635C247.161 6.305 245.969 6.10333 245.309 6.03L237.609 42H229.689L237.444 5.81ZM270.086 42.22C267.372 42.22 265.227 41.5233 263.651 40.13C262.074 38.7367 261.286 36.5367 261.286 33.53C261.286 31.0367 261.799 28.2683 262.826 25.225C263.852 22.1817 265.502 19.56 267.776 17.36C270.049 15.1233 272.909 14.005 276.356 14.005C281.049 14.005 283.396 16.9383 283.396 22.805V22.86C283.506 22.8967 283.707 22.915 284.001 22.915C285.211 22.915 286.604 22.6033 288.181 21.98C289.757 21.32 291.187 20.5317 292.471 19.615L292.966 21.1C291.902 22.2367 290.509 23.2083 288.786 24.015C287.099 24.785 285.247 25.335 283.231 25.665C282.937 29.0017 282.186 31.9167 280.976 34.41C279.766 36.9033 278.207 38.8283 276.301 40.185C274.394 41.5417 272.322 42.22 270.086 42.22ZM272.286 37.27C273.166 37.27 274.046 36.775 274.926 35.785C275.806 34.7583 276.576 33.3833 277.236 31.66C277.896 29.9 278.372 27.9567 278.666 25.83C277.676 25.61 277.181 24.84 277.181 23.52C277.181 22.0167 277.749 21.0267 278.886 20.55C278.812 19.34 278.629 18.515 278.336 18.075C278.042 17.5983 277.529 17.36 276.796 17.36C275.586 17.36 274.412 18.24 273.276 20C272.139 21.76 271.222 23.8683 270.526 26.325C269.829 28.7817 269.481 30.945 269.481 32.815C269.481 34.575 269.682 35.7667 270.086 36.39C270.489 36.9767 271.222 37.27 272.286 37.27ZM295.961 55.75C294.201 55.75 292.734 55.2917 291.561 54.375C290.387 53.4583 289.801 52.1383 289.801 50.415C289.801 48.325 290.644 46.6383 292.331 45.355C294.017 44.1083 296.162 43.0633 298.766 42.22L299.426 39.305C297.556 41.3217 295.356 42.33 292.826 42.33C290.736 42.33 288.994 41.615 287.601 40.185C286.207 38.755 285.511 36.5183 285.511 33.475C285.511 30.7617 286.042 27.92 287.106 24.95C288.206 21.9433 289.819 19.4133 291.946 17.36C294.109 15.27 296.676 14.225 299.646 14.225C301.149 14.225 302.267 14.4817 303.001 14.995C303.734 15.5083 304.101 16.1867 304.101 17.03V17.36L304.706 14.5H312.626L307.181 40.02C308.941 39.4333 310.352 38.5533 311.416 37.38C312.479 36.2067 313.377 34.465 314.111 32.155H316.421C315.431 35.4183 314.092 37.82 312.406 39.36C310.719 40.8633 308.812 41.89 306.686 42.44L305.861 46.4C305.127 49.9567 303.862 52.395 302.066 53.715C300.269 55.0717 298.234 55.75 295.961 55.75ZM296.401 36.995C297.244 36.995 298.106 36.61 298.986 35.84C299.866 35.07 300.471 34.025 300.801 32.705L303.606 19.67C303.606 19.23 303.422 18.79 303.056 18.35C302.689 17.8733 302.121 17.635 301.351 17.635C299.884 17.635 298.564 18.4967 297.391 20.22C296.217 21.9067 295.301 23.96 294.641 26.38C293.981 28.7633 293.651 30.8717 293.651 32.705C293.651 34.5383 293.907 35.7117 294.421 36.225C294.971 36.7383 295.631 36.995 296.401 36.995ZM294.696 51.46C295.319 51.46 295.924 51.0383 296.511 50.195C297.097 49.3517 297.556 48.1417 297.886 46.565L298.216 44.97C294.622 46.29 292.826 47.8483 292.826 49.645C292.826 50.1217 292.991 50.5433 293.321 50.91C293.651 51.2767 294.109 51.46 294.696 51.46ZM320.702 42.33C318.612 42.33 316.87 41.615 315.477 40.185C314.083 38.755 313.387 36.5183 313.387 33.475C313.387 30.7617 313.918 27.92 314.982 24.95C316.082 21.9433 317.695 19.4133 319.822 17.36C321.985 15.27 324.552 14.225 327.522 14.225C329.025 14.225 330.143 14.4817 330.877 14.995C331.61 15.5083 331.977 16.1867 331.977 17.03V17.415L332.582 14.5H340.502L336.542 33.2C336.395 33.75 336.322 34.3367 336.322 34.96C336.322 36.5367 337.073 37.325 338.577 37.325C339.603 37.325 340.483 36.8483 341.217 35.895C341.987 34.9417 342.592 33.695 343.032 32.155H345.342C343.985 36.115 342.298 38.81 340.282 40.24C338.302 41.6333 336.303 42.33 334.287 42.33C332.747 42.33 331.5 41.9083 330.547 41.065C329.63 40.185 329.08 38.92 328.897 37.27C327.833 38.7733 326.642 40.0017 325.322 40.955C324.038 41.8717 322.498 42.33 320.702 42.33ZM324.277 36.995C325.193 36.995 326.092 36.5733 326.972 35.73C327.888 34.85 328.512 33.6583 328.842 32.155L331.482 19.725C331.482 19.2483 331.298 18.79 330.932 18.35C330.565 17.8733 329.997 17.635 329.227 17.635C327.76 17.635 326.44 18.4967 325.267 20.22C324.093 21.9067 323.177 23.96 322.517 26.38C321.857 28.7633 321.527 30.8717 321.527 32.705C321.527 34.5383 321.783 35.7117 322.297 36.225C322.847 36.7383 323.507 36.995 324.277 36.995ZM357.352 11.805C355.078 11.805 353.318 11.3833 352.072 10.54C350.825 9.69667 350.202 8.54166 350.202 7.075C350.202 5.865 350.532 4.89333 351.192 4.16C351.888 3.42667 352.787 3.06 353.887 3.06C354.95 3.06 355.775 3.31667 356.362 3.83C356.985 4.34333 357.297 5.07667 357.297 6.03C357.297 7.20333 356.857 8.08333 355.977 8.67C356.453 8.81666 357.187 8.89 358.177 8.89C359.937 8.89 361.568 8.395 363.072 7.405C364.575 6.415 365.767 4.765 366.647 2.455H368.957C367.783 5.90167 366.243 8.32167 364.337 9.715C362.467 11.1083 360.138 11.805 357.352 11.805ZM348.497 42.33C346.737 42.33 345.307 41.78 344.207 40.68C343.143 39.58 342.612 37.93 342.612 35.73C342.612 34.8133 342.758 33.6217 343.052 32.155L346.792 14.5H354.712L350.752 33.2C350.642 33.64 350.587 34.0983 350.587 34.575C350.587 36.1883 351.137 36.995 352.237 36.995C353.263 36.995 354.143 36.5733 354.877 35.73C355.61 34.85 356.197 33.6583 356.637 32.155L360.377 14.5H368.297L364.337 33.2C364.19 33.75 364.117 34.3367 364.117 34.96C364.117 35.6933 364.282 36.225 364.612 36.555C364.978 36.8483 365.565 36.995 366.372 36.995C366.958 36.995 367.38 36.9583 367.637 36.885C367.93 36.775 368.113 36.7017 368.187 36.665C368.04 38.535 367.398 39.9467 366.262 40.9C365.125 41.8533 363.732 42.33 362.082 42.33C360.542 42.33 359.295 41.8717 358.342 40.955C357.425 40.0383 356.875 38.755 356.692 37.105C355.445 39.1217 354.125 40.4967 352.732 41.23C351.375 41.9633 349.963 42.33 348.497 42.33Z" fill="black"/>
</svg>
