<svg width="36" height="36" viewBox="0 0 36 36" fill="none" xmlns="http://www.w3.org/2000/svg">
<path d="M24 6.00003H28.5C29.2956 6.00003 30.0587 6.3161 30.6213 6.87871C31.1839 7.44132 31.5 8.20438 31.5 9.00003V10.5M24 30H28.5C29.2956 30 30.0587 29.684 30.6213 29.1213C31.1839 28.5587 31.5 27.7957 31.5 27V25.5M13.5015 18H13.5M24 18H31.5M31.5 18L28.5 15M31.5 18L28.5 21M6.6375 29.142L15.6375 31.842C16.0855 31.9765 16.5588 32.0044 17.0195 31.9234C17.4802 31.8424 17.9156 31.6548 18.2909 31.3755C18.6661 31.0963 18.9709 30.7331 19.1809 30.3151C19.3908 29.8971 19.5001 29.4358 19.5 28.968V7.03203C19.5001 6.56426 19.3908 6.10294 19.1809 5.68493C18.9709 5.26691 18.6661 4.90379 18.2909 4.62455C17.9156 4.34531 17.4802 4.1577 17.0195 4.07669C16.5588 3.99569 16.0855 4.02355 15.6375 4.15803L6.6375 6.85803C6.01953 7.04353 5.47783 7.42331 5.09278 7.94104C4.70773 8.45876 4.49986 9.08682 4.5 9.73203V26.268C4.49986 26.9132 4.70773 27.5413 5.09278 28.059C5.47783 28.5767 6.01953 28.9565 6.6375 29.142Z" stroke="#333333" stroke-width="3" stroke-linecap="round" stroke-linejoin="round"/>
</svg>
