<svg width="17" height="18" viewBox="0 0 17 18" fill="none" xmlns="http://www.w3.org/2000/svg">
<g clip-path="url(#clip0_259_814)">
<path d="M8.49057 0.538034C8.35775 0.584406 8.2601 0.649873 8.19369 0.737161C8.16504 0.77535 8.06999 0.959475 7.98275 1.14769C7.25489 2.70252 5.87598 5.62396 5.86296 5.63624C5.85384 5.64442 5.68067 5.67579 5.47624 5.70716C5.27181 5.73853 4.38509 5.87492 3.50358 6.00994C2.62337 6.14496 1.66244 6.29363 1.36816 6.33864C1.0752 6.38228 0.799154 6.43138 0.754883 6.44502C0.611654 6.48866 0.481445 6.60187 0.415039 6.73962C0.379883 6.81054 0.333008 6.97693 0.333008 7.0274C0.333008 7.08605 0.3903 7.26744 0.430664 7.34246C0.476237 7.42293 0.322591 7.26471 2.41374 9.39101C4.02051 11.0249 4.17416 11.1859 4.16765 11.2186C4.16374 11.2377 4.11166 11.5541 4.05046 11.9224C3.99056 12.2893 3.8877 12.9112 3.82259 13.304C3.75879 13.6954 3.65332 14.3337 3.58822 14.7224C3.52442 15.1098 3.43327 15.6608 3.3864 15.9458C3.28223 16.5678 3.27962 16.6373 3.35775 16.8024C3.43848 16.9728 3.55436 17.0738 3.74186 17.1338C3.86817 17.1747 3.90723 17.1733 4.03744 17.1283C4.10254 17.1051 4.97754 16.6332 6.39681 15.8531C7.6377 15.1725 8.66374 14.6161 8.67546 14.6161C8.68848 14.6161 8.85385 14.7006 9.04395 14.8056C9.23406 14.9093 10.2158 15.4467 11.2249 16.0004C12.2354 16.5541 13.1104 17.0329 13.1716 17.0629C13.2822 17.1188 13.2822 17.1188 13.4385 17.1188C13.5895 17.1188 13.5986 17.1174 13.6807 17.0751C13.8929 16.966 14.0179 16.7614 14.0179 16.5282C14.0179 16.4764 13.9749 16.1804 13.9203 15.8436C13.8656 15.5176 13.7692 14.9325 13.7054 14.5438C13.6403 14.1564 13.5361 13.5209 13.471 13.1321C13.4072 12.7448 13.3109 12.1597 13.2562 11.8337C13.2028 11.5078 13.1585 11.2268 13.1585 11.2118C13.1585 11.1913 13.6781 10.6485 14.9203 9.37601C17.0557 7.18425 16.8604 7.38746 16.9033 7.31245C16.9424 7.24153 16.9997 7.05877 16.9997 7.00148C16.9997 6.94829 16.9554 6.78872 16.9216 6.7178C16.876 6.62505 16.8304 6.56913 16.7497 6.50639C16.652 6.43138 16.5544 6.40001 16.3226 6.36591C16.1455 6.34 14.8291 6.14633 13.8161 5.9963C13.5661 5.95948 13.1468 5.89674 12.8851 5.85855C11.5466 5.66079 11.4515 5.64578 11.4333 5.62669C11.4242 5.61578 10.9072 4.52467 10.2848 3.20034C9.21452 0.92265 9.15072 0.788989 9.08041 0.711247C8.99447 0.614412 8.91765 0.566676 8.78353 0.528487C8.65853 0.491662 8.61817 0.493026 8.49057 0.538034Z" fill="#EDEDED"/>
</g>
<defs>
<clipPath id="clip0_259_814">
<rect width="16.6667" height="16.6667" fill="white" transform="translate(0.333008 0.499878)"/>
</clipPath>
</defs>
</svg>
