<svg width="29" height="31" viewBox="0 0 29 31" fill="none" xmlns="http://www.w3.org/2000/svg">
<mask id="path-1-inside-1_11_144" fill="white">
<path fill-rule="evenodd" clip-rule="evenodd" d="M17.1748 17.5336C20.5613 16.3696 22.9949 13.1565 22.9949 9.375C22.9949 4.61154 19.1333 0.75 14.3699 0.75C9.60642 0.75 5.74487 4.61154 5.74487 9.375C5.74487 13.1565 8.17851 16.3697 11.565 17.5337C5.36499 18.8066 0.67339 24.2152 0.5 30.75H28.2401C28.0667 24.2152 23.375 18.8064 17.1748 17.5336Z"/>
</mask>
<path fill-rule="evenodd" clip-rule="evenodd" d="M17.1748 17.5336C20.5613 16.3696 22.9949 13.1565 22.9949 9.375C22.9949 4.61154 19.1333 0.75 14.3699 0.75C9.60642 0.75 5.74487 4.61154 5.74487 9.375C5.74487 13.1565 8.17851 16.3697 11.565 17.5337C5.36499 18.8066 0.67339 24.2152 0.5 30.75H28.2401C28.0667 24.2152 23.375 18.8064 17.1748 17.5336Z" fill="white"/>
<path d="M17.1748 17.5336L16.3825 15.2285L7.94773 18.1278L16.6847 19.9213L17.1748 17.5336ZM11.565 17.5337L12.0552 19.9214L20.7921 18.1277L12.3573 15.2285L11.565 17.5337ZM0.5 30.75L-1.93664 30.6853L-2.00303 33.1875H0.5V30.75ZM28.2401 30.75V33.1875H30.7431L30.6767 30.6853L28.2401 30.75ZM20.5574 9.375C20.5574 12.084 18.8149 14.3924 16.3825 15.2285L17.9672 19.8388C22.3076 18.3468 25.4324 14.229 25.4324 9.375H20.5574ZM14.3699 3.1875C17.7871 3.1875 20.5574 5.95774 20.5574 9.375H25.4324C25.4324 3.26535 20.4795 -1.6875 14.3699 -1.6875V3.1875ZM8.18237 9.375C8.18237 5.95774 10.9526 3.1875 14.3699 3.1875V-1.6875C8.26022 -1.6875 3.30737 3.26535 3.30737 9.375H8.18237ZM12.3573 15.2285C9.92484 14.3925 8.18237 12.0841 8.18237 9.375H3.30737C3.30737 14.229 6.43217 18.3469 10.7727 19.8388L12.3573 15.2285ZM2.93664 30.8147C3.07946 25.4321 6.94571 20.9704 12.0552 19.9214L11.0748 15.146C3.78427 16.6427 -1.73268 22.9983 -1.93664 30.6853L2.93664 30.8147ZM28.2401 28.3125H0.5V33.1875H28.2401V28.3125ZM16.6847 19.9213C21.7943 20.9703 25.6606 25.4321 25.8034 30.8147L30.6767 30.6853C30.4727 22.9983 24.9557 16.6426 17.665 15.1459L16.6847 19.9213Z" fill="#333333" mask="url(#path-1-inside-1_11_144)"/>
</svg>
