<svg width="34" height="32" viewBox="0 0 34 32" fill="none" xmlns="http://www.w3.org/2000/svg">
<g clip-path="url(#clip0_11_121)">
<path d="M28.7311 9.3573L23.1824 1.54248C22.7758 0.969916 21.9637 0.822934 21.3686 1.2145C20.7737 1.60656 20.6214 2.38804 21.028 2.96111L25.562 9.34557H8.01427L12.5474 2.96111C12.9545 2.38821 12.8019 1.60656 12.2068 1.2145C11.6118 0.822439 10.7998 0.969916 10.3935 1.54248L4.84478 9.3573C2.42903 9.47538 0.5 11.3995 0.5 13.7552C0.5 14.9167 0.977971 16.0161 1.82741 16.8405L3.66383 27.2962C3.72866 29.0043 5.1919 30.3747 6.98081 30.3747H26.5948C28.3837 30.3747 29.8469 29.0046 29.9117 27.2962L31.7482 16.841C32.5976 16.0162 33.0761 14.9168 33.0761 13.7554C33.0759 11.4 31.1469 9.47538 28.7311 9.3573ZM29.719 15.2232L29.3328 15.5223L27.3224 26.968L27.3041 27.1774C27.3041 27.554 26.9861 27.861 26.5946 27.861H6.98081C6.58928 27.861 6.27098 27.5545 6.27098 27.1774L4.2423 15.5226L3.85643 15.2235C3.38137 14.8554 3.1092 14.32 3.1092 13.7547C3.1092 12.7088 3.99208 11.8586 5.07734 11.8586H28.497C29.5823 11.8586 30.4652 12.7093 30.4652 13.7547C30.4662 14.3205 30.194 14.8559 29.719 15.2232Z" fill="#333333"/>
<path d="M23.1023 15.1419C22.3817 15.1419 21.7974 15.7044 21.7974 16.3985V25.2064C21.7974 25.9003 22.3815 26.463 23.1023 26.463C23.8231 26.463 24.4072 25.9005 24.4072 25.2064V16.3984C24.4071 15.7044 23.823 15.1419 23.1023 15.1419Z" fill="#333333"/>
<path d="M16.7883 15.1419C16.0677 15.1419 15.4834 15.7044 15.4834 16.3985V25.2064C15.4834 25.9003 16.0675 26.463 16.7883 26.463C17.509 26.463 18.0933 25.9005 18.0933 25.2064V16.3984C18.0933 15.7044 17.509 15.1419 16.7883 15.1419Z" fill="#333333"/>
<path d="M10.4729 15.1419C9.75227 15.1419 9.16797 15.7044 9.16797 16.3985V25.2064C9.16797 25.9003 9.7521 26.463 10.4729 26.463C11.1937 26.463 11.7779 25.9005 11.7779 25.2064V16.3984C11.7782 15.7044 11.1937 15.1419 10.4729 15.1419Z" fill="#333333"/>
</g>
<defs>
<clipPath id="clip0_11_121">
<rect x="0.5" width="32.5761" height="31.3696" fill="white"/>
</clipPath>
</defs>
</svg>
