<svg width="403" height="61" viewBox="0 0 403 61" fill="none" xmlns="http://www.w3.org/2000/svg">
<path d="M14.5713 6.02C12.0113 6.42 10.0113 7.56 8.57133 9.44C7.13133 11.32 6.41133 14.14 6.41133 17.9C6.41133 19.38 6.55133 20.42 6.83133 21.02C7.11133 21.58 7.25133 21.9 7.25133 21.98C5.09133 21.98 3.47133 21.54 2.39133 20.66C1.35133 19.74 0.831328 18.24 0.831328 16.16C0.831328 13.32 1.53133 10.74 2.93133 8.42C4.33133 6.06 6.55133 4.16 9.59133 2.72C12.6713 1.28 16.5713 0.559999 21.2913 0.559999C23.1713 0.559999 25.0113 0.659999 26.8113 0.859999C28.6113 1.06 29.7113 1.18 30.1113 1.22C33.8313 1.74 37.2713 2 40.4313 2C42.9913 2 45.3113 1.58 47.3913 0.739997C47.2713 5.78 44.8713 8.32 40.1913 8.36L32.2113 45.5H23.5713L31.7313 7.64L27.0513 6.92C25.1713 6.56 23.8713 6.34 23.1513 6.26L14.7513 45.5H6.11133L14.5713 6.02ZM45.9799 13.28H54.6199L53.6599 17.78C55.6599 16.06 57.9999 15.2 60.6799 15.2C62.9199 15.2 64.6999 15.94 66.0199 17.42C67.3399 18.9 67.9999 21.32 67.9999 24.68C67.9999 27.84 67.5399 31.04 66.6199 34.28C65.6999 37.48 64.1399 40.22 61.9399 42.5C59.7399 44.74 56.8399 45.86 53.2399 45.86C50.6799 45.86 48.9799 45.14 48.1399 43.7L45.0199 58.34L35.9599 60.5L45.9799 13.28ZM51.3799 40.64C53.2999 40.64 54.8799 39.74 56.1199 37.94C57.3999 36.14 58.3199 34 58.8799 31.52C59.4799 29 59.7799 26.66 59.7799 24.5C59.7799 21.18 58.7799 19.52 56.7799 19.52C56.0599 19.52 55.3199 19.78 54.5599 20.3C53.8399 20.82 53.1999 21.54 52.6399 22.46L49.0999 39.26C49.4199 40.18 50.1799 40.64 51.3799 40.64ZM75.4263 45.86C73.5063 45.86 71.9463 45.26 70.7463 44.06C69.5863 42.86 69.0063 41.06 69.0063 38.66C69.0063 37.66 69.1663 36.36 69.4863 34.76L73.5663 15.5H82.2063L77.8863 35.9C77.7663 36.5 77.7063 37.06 77.7063 37.58C77.7063 39.22 78.3063 40.04 79.5063 40.04C80.6263 40.04 81.5863 39.58 82.3863 38.66C83.1863 37.7 83.8263 36.4 84.3063 34.76L88.3863 15.5H97.0263L92.7063 35.9C92.5463 36.5 92.4663 37.14 92.4663 37.82C92.4663 38.62 92.6463 39.2 93.0063 39.56C93.4063 39.88 94.0463 40.04 94.9263 40.04C96.0463 40.04 97.0063 39.56 97.8063 38.6C98.6463 37.64 99.3063 36.36 99.7863 34.76H102.306C100.826 39.08 98.9863 42.02 96.7863 43.58C94.6263 45.1 92.4463 45.86 90.2463 45.86C88.5263 45.86 87.1463 45.38 86.1063 44.42C85.1063 43.46 84.5063 42.04 84.3063 40.16C82.9463 42.36 81.5063 43.86 79.9863 44.66C78.5063 45.46 76.9863 45.86 75.4263 45.86ZM121.559 45.86C119.279 45.86 117.519 45.26 116.279 44.06C115.079 42.82 114.479 41.3 114.479 39.5C114.479 38.34 114.939 35.54 115.859 31.1H109.199L106.139 45.5H97.4993L103.859 15.5H112.499L109.919 27.5H116.639L119.339 15.5H127.379L124.199 30.38C123.799 32.1 123.459 33.6 123.179 34.88C122.899 36.16 122.759 37.04 122.759 37.52C122.759 39.2 123.559 40.04 125.159 40.04C126.279 40.04 127.179 39.66 127.859 38.9C128.539 38.14 129.319 36.76 130.199 34.76H132.719C130.199 42.16 126.479 45.86 121.559 45.86ZM138.769 45.86C135.809 45.86 133.509 45.1 131.869 43.58C130.229 42.02 129.409 39.6 129.409 36.32C129.409 33.56 129.949 30.52 131.029 27.2C132.109 23.88 133.869 21.02 136.309 18.62C138.749 16.18 141.849 14.96 145.609 14.96C150.009 14.96 152.209 16.88 152.209 20.72C152.209 22.96 151.569 25.02 150.289 26.9C149.009 28.78 147.309 30.3 145.189 31.46C143.069 32.58 140.809 33.22 138.409 33.38C138.329 34.58 138.289 35.38 138.289 35.78C138.289 37.74 138.629 39.08 139.309 39.8C139.989 40.48 141.089 40.82 142.609 40.82C144.769 40.82 146.609 40.32 148.129 39.32C149.689 38.32 151.389 36.8 153.229 34.76H155.269C150.829 42.16 145.329 45.86 138.769 45.86ZM138.889 30.5C140.369 30.42 141.769 29.9 143.089 28.94C144.449 27.98 145.529 26.76 146.329 25.28C147.169 23.8 147.589 22.24 147.589 20.6C147.589 18.96 147.089 18.14 146.089 18.14C144.649 18.14 143.229 19.4 141.829 21.92C140.469 24.44 139.489 27.3 138.889 30.5ZM161.797 45.86C158.837 45.86 156.537 45.1 154.897 43.58C153.257 42.02 152.437 39.6 152.437 36.32C152.437 33.56 152.977 30.52 154.057 27.2C155.177 23.88 156.937 21.02 159.337 18.62C161.777 16.18 164.857 14.96 168.577 14.96C170.977 14.96 172.677 15.48 173.677 16.52C174.717 17.56 175.237 18.88 175.237 20.48C175.237 21.88 174.937 22.96 174.337 23.72C173.737 24.48 172.977 24.86 172.057 24.86C171.377 24.86 170.677 24.62 169.957 24.14C170.437 22.82 170.677 21.64 170.677 20.6C170.677 19.84 170.537 19.24 170.257 18.8C169.977 18.36 169.557 18.14 168.997 18.14C167.797 18.14 166.597 19.12 165.397 21.08C164.197 23.04 163.217 25.42 162.457 28.22C161.697 31.02 161.317 33.54 161.317 35.78C161.317 37.74 161.657 39.08 162.337 39.8C163.017 40.48 164.117 40.82 165.637 40.82C167.797 40.82 169.637 40.32 171.157 39.32C172.717 38.32 174.417 36.8 176.257 34.76H178.297C173.857 42.16 168.357 45.86 161.797 45.86ZM182.184 45.86C180.264 45.86 178.704 45.26 177.504 44.06C176.344 42.86 175.764 41.06 175.764 38.66C175.764 37.66 175.924 36.36 176.244 34.76L180.324 15.5H188.964L184.644 35.9C184.524 36.38 184.464 36.88 184.464 37.4C184.464 39.16 185.064 40.04 186.264 40.04C187.384 40.04 188.344 39.58 189.144 38.66C189.944 37.7 190.584 36.4 191.064 34.76L195.144 15.5H203.784L199.464 35.9C199.304 36.5 199.224 37.14 199.224 37.82C199.224 38.62 199.404 39.2 199.764 39.56C200.164 39.88 200.804 40.04 201.684 40.04C202.324 40.04 202.784 40 203.064 39.92C203.384 39.8 203.584 39.72 203.664 39.68C203.504 41.72 202.804 43.26 201.564 44.3C200.324 45.34 198.804 45.86 197.004 45.86C195.324 45.86 193.964 45.36 192.924 44.36C191.924 43.36 191.324 41.96 191.124 40.16C189.764 42.36 188.324 43.86 186.804 44.66C185.324 45.46 183.784 45.86 182.184 45.86ZM259.142 6.02C256.582 6.42 254.582 7.56 253.142 9.44C251.702 11.32 250.982 14.14 250.982 17.9C250.982 19.38 251.122 20.42 251.402 21.02C251.682 21.58 251.822 21.9 251.822 21.98C249.662 21.98 248.042 21.54 246.962 20.66C245.922 19.74 245.402 18.24 245.402 16.16C245.402 13.32 246.102 10.74 247.502 8.42C248.902 6.06 251.122 4.16 254.162 2.72C257.242 1.28 261.142 0.559999 265.862 0.559999C267.742 0.559999 269.582 0.659999 271.382 0.859999C273.182 1.06 274.282 1.18 274.682 1.22C278.402 1.74 281.842 2 285.002 2C287.562 2 289.882 1.58 291.962 0.739997C291.842 5.78 289.442 8.32 284.762 8.36L276.782 45.5H268.142L276.302 7.64L271.622 6.92C269.742 6.56 268.442 6.34 267.722 6.26L259.322 45.5H250.682L259.142 6.02ZM294.75 45.74C291.79 45.74 289.45 44.98 287.73 43.46C286.01 41.94 285.15 39.54 285.15 36.26C285.15 33.54 285.71 30.52 286.83 27.2C287.95 23.88 289.75 21.02 292.23 18.62C294.71 16.18 297.83 14.96 301.59 14.96C306.71 14.96 309.27 18.16 309.27 24.56V24.62C309.39 24.66 309.61 24.68 309.93 24.68C311.25 24.68 312.77 24.34 314.49 23.66C316.21 22.94 317.77 22.08 319.17 21.08L319.71 22.7C318.55 23.94 317.03 25 315.15 25.88C313.31 26.72 311.29 27.32 309.09 27.68C308.77 31.32 307.95 34.5 306.63 37.22C305.31 39.94 303.61 42.04 301.53 43.52C299.45 45 297.19 45.74 294.75 45.74ZM297.15 40.34C298.11 40.34 299.07 39.8 300.03 38.72C300.99 37.6 301.83 36.1 302.55 34.22C303.27 32.3 303.79 30.18 304.11 27.86C303.03 27.62 302.49 26.78 302.49 25.34C302.49 23.7 303.11 22.62 304.35 22.1C304.27 20.78 304.07 19.88 303.75 19.4C303.43 18.88 302.87 18.62 302.07 18.62C300.75 18.62 299.47 19.58 298.23 21.5C296.99 23.42 295.99 25.72 295.23 28.4C294.47 31.08 294.09 33.44 294.09 35.48C294.09 37.4 294.31 38.7 294.75 39.38C295.19 40.02 295.99 40.34 297.15 40.34ZM322.977 60.5C321.057 60.5 319.457 60 318.177 59C316.897 58 316.257 56.56 316.257 54.68C316.257 52.4 317.177 50.56 319.017 49.16C320.857 47.8 323.197 46.66 326.037 45.74L326.757 42.56C324.717 44.76 322.317 45.86 319.557 45.86C317.277 45.86 315.377 45.08 313.857 43.52C312.337 41.96 311.577 39.52 311.577 36.2C311.577 33.24 312.157 30.14 313.317 26.9C314.517 23.62 316.277 20.86 318.597 18.62C320.957 16.34 323.757 15.2 326.997 15.2C328.637 15.2 329.857 15.48 330.657 16.04C331.457 16.6 331.857 17.34 331.857 18.26V18.62L332.517 15.5H341.157L335.217 43.34C337.137 42.7 338.677 41.74 339.837 40.46C340.997 39.18 341.977 37.28 342.777 34.76H345.297C344.217 38.32 342.757 40.94 340.917 42.62C339.077 44.26 336.997 45.38 334.677 45.98L333.777 50.3C332.977 54.18 331.597 56.84 329.637 58.28C327.677 59.76 325.457 60.5 322.977 60.5ZM323.457 40.04C324.377 40.04 325.317 39.62 326.277 38.78C327.237 37.94 327.897 36.8 328.257 35.36L331.317 21.14C331.317 20.66 331.117 20.18 330.717 19.7C330.317 19.18 329.697 18.92 328.857 18.92C327.257 18.92 325.817 19.86 324.537 21.74C323.257 23.58 322.257 25.82 321.537 28.46C320.817 31.06 320.457 33.36 320.457 35.36C320.457 37.36 320.737 38.64 321.297 39.2C321.897 39.76 322.617 40.04 323.457 40.04ZM321.597 55.82C322.277 55.82 322.937 55.36 323.577 54.44C324.217 53.52 324.717 52.2 325.077 50.48L325.437 48.74C321.517 50.18 319.557 51.88 319.557 53.84C319.557 54.36 319.737 54.82 320.097 55.22C320.457 55.62 320.957 55.82 321.597 55.82ZM349.968 45.86C347.688 45.86 345.788 45.08 344.268 43.52C342.748 41.96 341.988 39.52 341.988 36.2C341.988 33.24 342.568 30.14 343.728 26.9C344.928 23.62 346.688 20.86 349.008 18.62C351.368 16.34 354.168 15.2 357.408 15.2C359.048 15.2 360.268 15.48 361.068 16.04C361.868 16.6 362.268 17.34 362.268 18.26V18.68L362.928 15.5H371.568L367.248 35.9C367.088 36.5 367.008 37.14 367.008 37.82C367.008 39.54 367.828 40.4 369.468 40.4C370.588 40.4 371.548 39.88 372.348 38.84C373.188 37.8 373.848 36.44 374.328 34.76H376.848C375.368 39.08 373.528 42.02 371.328 43.58C369.168 45.1 366.988 45.86 364.788 45.86C363.108 45.86 361.748 45.4 360.708 44.48C359.708 43.52 359.108 42.14 358.908 40.34C357.748 41.98 356.448 43.32 355.008 44.36C353.608 45.36 351.928 45.86 349.968 45.86ZM353.868 40.04C354.868 40.04 355.848 39.58 356.808 38.66C357.808 37.7 358.488 36.4 358.848 34.76L361.728 21.2C361.728 20.68 361.528 20.18 361.128 19.7C360.728 19.18 360.108 18.92 359.268 18.92C357.668 18.92 356.228 19.86 354.948 21.74C353.668 23.58 352.668 25.82 351.948 28.46C351.228 31.06 350.868 33.36 350.868 35.36C350.868 37.36 351.148 38.64 351.708 39.2C352.308 39.76 353.028 40.04 353.868 40.04ZM389.95 12.56C387.47 12.56 385.55 12.1 384.19 11.18C382.83 10.26 382.15 9 382.15 7.4C382.15 6.08 382.51 5.02 383.23 4.22C383.99 3.42 384.97 3.02 386.17 3.02C387.33 3.02 388.23 3.3 388.87 3.86C389.55 4.42 389.89 5.22 389.89 6.26C389.89 7.54 389.41 8.5 388.45 9.14C388.97 9.3 389.77 9.38 390.85 9.38C392.77 9.38 394.55 8.84 396.19 7.76C397.83 6.68 399.13 4.88 400.09 2.36H402.61C401.33 6.12 399.65 8.76 397.57 10.28C395.53 11.8 392.99 12.56 389.95 12.56ZM380.29 45.86C378.37 45.86 376.81 45.26 375.61 44.06C374.45 42.86 373.87 41.06 373.87 38.66C373.87 37.66 374.03 36.36 374.35 34.76L378.43 15.5H387.07L382.75 35.9C382.63 36.38 382.57 36.88 382.57 37.4C382.57 39.16 383.17 40.04 384.37 40.04C385.49 40.04 386.45 39.58 387.25 38.66C388.05 37.7 388.69 36.4 389.17 34.76L393.25 15.5H401.89L397.57 35.9C397.41 36.5 397.33 37.14 397.33 37.82C397.33 38.62 397.51 39.2 397.87 39.56C398.27 39.88 398.91 40.04 399.79 40.04C400.43 40.04 400.89 40 401.17 39.92C401.49 39.8 401.69 39.72 401.77 39.68C401.61 41.72 400.91 43.26 399.67 44.3C398.43 45.34 396.91 45.86 395.11 45.86C393.43 45.86 392.07 45.36 391.03 44.36C390.03 43.36 389.43 41.96 389.23 40.16C387.87 42.36 386.43 43.86 384.91 44.66C383.43 45.46 381.89 45.86 380.29 45.86Z" fill="black"/>
<path d="M243.203 21.2C243.323 21.68 243.383 22.14 243.383 22.58C243.383 23.98 242.843 25.3 241.763 26.54C240.723 27.78 239.403 28.66 237.803 29.18C237.123 29.38 236.323 29.48 235.403 29.48C235.043 32.88 234.023 35.88 232.343 38.48C230.703 41.04 228.543 43.04 225.863 44.48C223.183 45.88 220.183 46.58 216.863 46.58C213.063 46.58 210.063 45.62 207.863 43.7C205.703 41.78 204.623 39.18 204.623 35.9C204.623 33.7 205.103 31.54 206.063 29.42C207.063 27.26 208.403 25.4 210.083 23.84C211.803 22.28 213.683 21.2 215.723 20.6V20.36C214.483 19.32 213.603 18.22 213.083 17.06C212.563 15.9 212.303 14.46 212.303 12.74C212.303 10.58 212.883 8.56 214.043 6.68C215.243 4.76 216.843 3.24 218.843 2.12C220.883 0.959998 223.083 0.379998 225.443 0.379998C228.163 0.379998 230.403 1.16 232.163 2.72C233.923 4.28 234.803 6.26 234.803 8.66C234.803 10.3 234.383 11.64 233.543 12.68C232.703 13.72 231.603 14.24 230.243 14.24C228.723 14.24 227.503 13.62 226.583 12.38C227.303 11.94 227.883 11.26 228.323 10.34C228.803 9.42 229.043 8.44 229.043 7.4C229.043 6.28 228.763 5.4 228.203 4.76C227.643 4.12 226.883 3.8 225.923 3.8C224.883 3.8 223.883 4.2 222.923 5C221.963 5.8 221.183 6.88 220.583 8.24C220.023 9.56 219.743 10.96 219.743 12.44C219.743 14.44 220.283 16.14 221.363 17.54C222.443 18.9 223.923 19.82 225.803 20.3V20.54C223.923 20.9 222.143 21.78 220.463 23.18C218.823 24.54 217.503 26.22 216.503 28.22C215.543 30.18 215.063 32.18 215.063 34.22C215.063 36.3 215.583 37.92 216.623 39.08C217.663 40.24 219.103 40.82 220.943 40.82C222.663 40.82 224.363 40.34 226.043 39.38C227.723 38.42 229.163 37.08 230.363 35.36C231.563 33.64 232.363 31.7 232.763 29.54C231.883 29.54 230.963 29.66 230.003 29.9C227.803 30.62 226.223 31.68 225.263 33.08L225.083 33.14C224.643 32.58 224.283 31.86 224.003 30.98C223.843 30.5 223.763 29.98 223.763 29.42C223.763 28.06 224.243 26.84 225.203 25.76C226.163 24.68 227.363 23.92 228.803 23.48C229.923 23.16 231.463 22.92 233.423 22.76C234.743 22.68 235.883 22.54 236.843 22.34C237.763 22.06 238.683 21.6 239.603 20.96C240.563 20.28 241.283 19.62 241.763 18.98H241.883C242.483 19.58 242.923 20.32 243.203 21.2Z" fill="url(#paint0_linear_121_707)"/>
<defs>
<linearGradient id="paint0_linear_121_707" x1="201" y1="-14.5" x2="201" y2="60.5" gradientUnits="userSpaceOnUse">
<stop stop-color="#1CB02B"/>
<stop offset="1" stop-color="#1CB02B" stop-opacity="0.6"/>
</linearGradient>
</defs>
</svg>
