<svg width="246" height="38" viewBox="0 0 246 38" fill="none" xmlns="http://www.w3.org/2000/svg">
<path d="M8.50336 3.87332C6.93891 4.11777 5.71669 4.81443 4.83669 5.96332C3.95669 7.11221 3.51669 8.83555 3.51669 11.1333C3.51669 12.0378 3.60224 12.6733 3.77336 13.04C3.94447 13.3822 4.03002 13.5778 4.03002 13.6267C2.71002 13.6267 1.72002 13.3578 1.06002 12.82C0.424465 12.2578 0.106687 11.3411 0.106687 10.07C0.106687 8.33444 0.534465 6.75777 1.39002 5.33999C2.24558 3.89777 3.60224 2.73665 5.46002 1.85665C7.34225 0.976653 9.72558 0.536654 12.61 0.536654C13.7589 0.536654 14.8834 0.597765 15.9834 0.719987C17.0834 0.842209 17.7556 0.915542 18 0.939987C20.2734 1.25776 22.3756 1.41665 24.3067 1.41665C25.8711 1.41665 27.2889 1.15999 28.56 0.646652C28.4867 3.72665 27.02 5.27888 24.16 5.30332L19.2834 28H14.0034L18.99 4.86332L16.13 4.42332C14.9811 4.20332 14.1867 4.06888 13.7467 4.01999L8.61336 28H3.33336L8.50336 3.87332ZM27.6975 8.30999H32.9775L32.3908 11.06C33.6131 10.0089 35.0431 9.48333 36.6808 9.48333C38.0497 9.48333 39.1375 9.93555 39.9442 10.84C40.7508 11.7444 41.1542 13.2233 41.1542 15.2767C41.1542 17.2078 40.8731 19.1633 40.3108 21.1433C39.7486 23.0989 38.7953 24.7733 37.4508 26.1667C36.1064 27.5356 34.3342 28.22 32.1342 28.22C30.5697 28.22 29.5308 27.78 29.0175 26.9L27.1108 35.8467L21.5742 37.1667L27.6975 8.30999ZM30.9975 25.03C32.1708 25.03 33.1364 24.48 33.8942 23.38C34.6764 22.28 35.2386 20.9722 35.5808 19.4567C35.9475 17.9167 36.1308 16.4867 36.1308 15.1667C36.1308 13.1378 35.5197 12.1233 34.2975 12.1233C33.8575 12.1233 33.4053 12.2822 32.9408 12.6C32.5008 12.9178 32.1097 13.3578 31.7675 13.92L29.6042 24.1867C29.7997 24.7489 30.2642 25.03 30.9975 25.03ZM45.6925 28.22C44.5192 28.22 43.5659 27.8533 42.8325 27.12C42.1236 26.3867 41.7692 25.2867 41.7692 23.82C41.7692 23.2089 41.867 22.4144 42.0625 21.4367L44.5559 9.66666H49.8359L47.1959 22.1333C47.1225 22.5 47.0859 22.8422 47.0859 23.16C47.0859 24.1622 47.4525 24.6633 48.1859 24.6633C48.8703 24.6633 49.457 24.3822 49.9459 23.82C50.4348 23.2333 50.8259 22.4389 51.1192 21.4367L53.6125 9.66666H58.8925L56.2525 22.1333C56.1548 22.5 56.1059 22.8911 56.1059 23.3067C56.1059 23.7956 56.2159 24.15 56.4359 24.37C56.6803 24.5656 57.0714 24.6633 57.6092 24.6633C58.2937 24.6633 58.8803 24.37 59.3692 23.7833C59.8825 23.1967 60.2859 22.4144 60.5792 21.4367H62.1192C61.2148 24.0767 60.0903 25.8733 58.7459 26.8267C57.4259 27.7556 56.0937 28.22 54.7492 28.22C53.6981 28.22 52.8548 27.9267 52.2192 27.34C51.6081 26.7533 51.2414 25.8856 51.1192 24.7367C50.2881 26.0811 49.4081 26.9978 48.4792 27.4867C47.5748 27.9756 46.6459 28.22 45.6925 28.22ZM73.8849 28.22C72.4916 28.22 71.416 27.8533 70.6583 27.12C69.9249 26.3622 69.5583 25.4333 69.5583 24.3333C69.5583 23.6244 69.8394 21.9133 70.4016 19.2H66.3316L64.4616 28H59.1816L63.0683 9.66666H68.3483L66.7716 17H70.8783L72.5283 9.66666H77.4416L75.4983 18.76C75.2538 19.8111 75.046 20.7278 74.8749 21.51C74.7038 22.2922 74.6183 22.83 74.6183 23.1233C74.6183 24.15 75.1071 24.6633 76.0849 24.6633C76.7694 24.6633 77.3194 24.4311 77.7349 23.9667C78.1505 23.5022 78.6272 22.6589 79.1649 21.4367H80.7049C79.1649 25.9589 76.8916 28.22 73.8849 28.22ZM84.4022 28.22C82.5934 28.22 81.1878 27.7556 80.1856 26.8267C79.1834 25.8733 78.6822 24.3944 78.6822 22.39C78.6822 20.7033 79.0122 18.8456 79.6722 16.8167C80.3322 14.7878 81.4078 13.04 82.8989 11.5733C84.39 10.0822 86.2845 9.33666 88.5823 9.33666C91.2711 9.33666 92.6156 10.51 92.6156 12.8567C92.6156 14.2255 92.2245 15.4844 91.4423 16.6333C90.66 17.7822 89.6211 18.7111 88.3256 19.42C87.03 20.1044 85.6489 20.4956 84.1822 20.5933C84.1334 21.3267 84.1089 21.8156 84.1089 22.06C84.1089 23.2578 84.3167 24.0767 84.7322 24.5167C85.1478 24.9322 85.82 25.14 86.7489 25.14C88.0689 25.14 89.1934 24.8344 90.1223 24.2233C91.0756 23.6122 92.1145 22.6833 93.2389 21.4367H94.4856C91.7723 25.9589 88.4111 28.22 84.4022 28.22ZM84.4756 18.8333C85.38 18.7844 86.2356 18.4667 87.0422 17.88C87.8734 17.2933 88.5334 16.5478 89.0223 15.6433C89.5356 14.7389 89.7923 13.7855 89.7923 12.7833C89.7923 11.7811 89.4867 11.28 88.8756 11.28C87.9956 11.28 87.1278 12.05 86.2722 13.59C85.4411 15.13 84.8422 16.8778 84.4756 18.8333ZM98.4745 28.22C96.6656 28.22 95.2601 27.7556 94.2579 26.8267C93.2556 25.8733 92.7545 24.3944 92.7545 22.39C92.7545 20.7033 93.0845 18.8456 93.7445 16.8167C94.429 14.7878 95.5045 13.04 96.9712 11.5733C98.4623 10.0822 100.345 9.33666 102.618 9.33666C104.085 9.33666 105.123 9.65444 105.735 10.29C106.37 10.9255 106.688 11.7322 106.688 12.71C106.688 13.5655 106.505 14.2255 106.138 14.69C105.771 15.1544 105.307 15.3867 104.745 15.3867C104.329 15.3867 103.901 15.24 103.461 14.9467C103.755 14.14 103.901 13.4189 103.901 12.7833C103.901 12.3189 103.816 11.9522 103.645 11.6833C103.473 11.4144 103.217 11.28 102.875 11.28C102.141 11.28 101.408 11.8789 100.675 13.0767C99.9412 14.2744 99.3423 15.7289 98.8779 17.44C98.4134 19.1511 98.1812 20.6911 98.1812 22.06C98.1812 23.2578 98.389 24.0767 98.8045 24.5167C99.2201 24.9322 99.8923 25.14 100.821 25.14C102.141 25.14 103.266 24.8344 104.195 24.2233C105.148 23.6122 106.187 22.6833 107.311 21.4367H108.558C105.845 25.9589 102.483 28.22 98.4745 28.22ZM110.933 28.22C109.76 28.22 108.807 27.8533 108.073 27.12C107.365 26.3867 107.01 25.2867 107.01 23.82C107.01 23.2089 107.108 22.4144 107.303 21.4367L109.797 9.66666H115.077L112.437 22.1333C112.363 22.4267 112.327 22.7322 112.327 23.05C112.327 24.1256 112.693 24.6633 113.427 24.6633C114.111 24.6633 114.698 24.3822 115.187 23.82C115.676 23.2333 116.067 22.4389 116.36 21.4367L118.853 9.66666H124.133L121.493 22.1333C121.396 22.5 121.347 22.8911 121.347 23.3067C121.347 23.7956 121.457 24.15 121.677 24.37C121.921 24.5656 122.312 24.6633 122.85 24.6633C123.241 24.6633 123.522 24.6389 123.693 24.59C123.889 24.5167 124.011 24.4678 124.06 24.4433C123.962 25.69 123.535 26.6311 122.777 27.2667C122.019 27.9022 121.09 28.22 119.99 28.22C118.963 28.22 118.132 27.9144 117.497 27.3033C116.886 26.6922 116.519 25.8367 116.397 24.7367C115.566 26.0811 114.686 26.9978 113.757 27.4867C112.852 27.9756 111.911 28.22 110.933 28.22ZM157.963 3.87332C156.399 4.11777 155.176 4.81443 154.296 5.96332C153.416 7.11221 152.976 8.83555 152.976 11.1333C152.976 12.0378 153.062 12.6733 153.233 13.04C153.404 13.3822 153.49 13.5778 153.49 13.6267C152.17 13.6267 151.18 13.3578 150.52 12.82C149.884 12.2578 149.566 11.3411 149.566 10.07C149.566 8.33444 149.994 6.75777 150.85 5.33999C151.705 3.89777 153.062 2.73665 154.92 1.85665C156.802 0.976653 159.185 0.536654 162.07 0.536654C163.219 0.536654 164.343 0.597765 165.443 0.719987C166.543 0.842209 167.215 0.915542 167.46 0.939987C169.733 1.25776 171.835 1.41665 173.766 1.41665C175.331 1.41665 176.749 1.15999 178.02 0.646652C177.946 3.72665 176.48 5.27888 173.62 5.30332L168.743 28H163.463L168.45 4.86332L165.59 4.42332C164.441 4.20332 163.646 4.06888 163.206 4.01999L158.073 28H152.793L157.963 3.87332ZM179.724 28.1467C177.915 28.1467 176.485 27.6822 175.434 26.7533C174.383 25.8244 173.857 24.3578 173.857 22.3533C173.857 20.6911 174.199 18.8456 174.884 16.8167C175.568 14.7878 176.668 13.04 178.184 11.5733C179.699 10.0822 181.606 9.33666 183.904 9.33666C187.033 9.33666 188.597 11.2922 188.597 15.2033V15.24C188.671 15.2644 188.805 15.2767 189.001 15.2767C189.807 15.2767 190.736 15.0689 191.787 14.6533C192.838 14.2133 193.792 13.6878 194.647 13.0767L194.977 14.0667C194.268 14.8244 193.339 15.4722 192.191 16.01C191.066 16.5233 189.832 16.89 188.487 17.11C188.292 19.3344 187.791 21.2778 186.984 22.94C186.177 24.6022 185.138 25.8856 183.867 26.79C182.596 27.6944 181.215 28.1467 179.724 28.1467ZM181.191 24.8467C181.777 24.8467 182.364 24.5167 182.951 23.8567C183.537 23.1722 184.051 22.2556 184.491 21.1067C184.931 19.9333 185.248 18.6378 185.444 17.22C184.784 17.0733 184.454 16.56 184.454 15.68C184.454 14.6778 184.833 14.0178 185.591 13.7C185.542 12.8933 185.419 12.3433 185.224 12.05C185.028 11.7322 184.686 11.5733 184.197 11.5733C183.391 11.5733 182.608 12.16 181.851 13.3333C181.093 14.5067 180.482 15.9122 180.017 17.55C179.553 19.1878 179.321 20.63 179.321 21.8767C179.321 23.05 179.455 23.8444 179.724 24.26C179.993 24.6511 180.482 24.8467 181.191 24.8467ZM196.974 37.1667C195.8 37.1667 194.823 36.8611 194.04 36.25C193.258 35.6389 192.867 34.7589 192.867 33.61C192.867 32.2167 193.429 31.0922 194.554 30.2367C195.678 29.4056 197.108 28.7089 198.844 28.1467L199.284 26.2033C198.037 27.5478 196.57 28.22 194.884 28.22C193.49 28.22 192.329 27.7433 191.4 26.79C190.472 25.8367 190.007 24.3456 190.007 22.3167C190.007 20.5078 190.362 18.6133 191.07 16.6333C191.804 14.6289 192.879 12.9422 194.297 11.5733C195.739 10.18 197.45 9.48333 199.43 9.48333C200.433 9.48333 201.178 9.65444 201.667 9.99666C202.156 10.3389 202.4 10.7911 202.4 11.3533V11.5733L202.804 9.66666H208.084L204.454 26.68C205.627 26.2889 206.568 25.7022 207.277 24.92C207.986 24.1378 208.585 22.9767 209.074 21.4367H210.614C209.954 23.6122 209.062 25.2133 207.937 26.24C206.813 27.2422 205.542 27.9267 204.124 28.2933L203.574 30.9333C203.085 33.3044 202.242 34.93 201.044 35.81C199.846 36.7144 198.489 37.1667 196.974 37.1667ZM197.267 24.6633C197.829 24.6633 198.404 24.4067 198.99 23.8933C199.577 23.38 199.98 22.6833 200.2 21.8033L202.07 13.1133C202.07 12.82 201.948 12.5267 201.704 12.2333C201.459 11.9155 201.08 11.7567 200.567 11.7567C199.589 11.7567 198.709 12.3311 197.927 13.48C197.145 14.6044 196.534 15.9733 196.094 17.5867C195.654 19.1756 195.434 20.5811 195.434 21.8033C195.434 23.0256 195.605 23.8078 195.947 24.15C196.314 24.4922 196.754 24.6633 197.267 24.6633ZM196.13 34.3067C196.546 34.3067 196.949 34.0256 197.34 33.4633C197.732 32.9011 198.037 32.0944 198.257 31.0433L198.477 29.98C196.082 30.86 194.884 31.8989 194.884 33.0967C194.884 33.4144 194.994 33.6956 195.214 33.94C195.434 34.1844 195.739 34.3067 196.13 34.3067ZM213.468 28.22C212.074 28.22 210.913 27.7433 209.984 26.79C209.056 25.8367 208.591 24.3456 208.591 22.3167C208.591 20.5078 208.946 18.6133 209.654 16.6333C210.388 14.6289 211.463 12.9422 212.881 11.5733C214.323 10.18 216.034 9.48333 218.014 9.48333C219.017 9.48333 219.762 9.65444 220.251 9.99666C220.74 10.3389 220.984 10.7911 220.984 11.3533V11.61L221.388 9.66666H226.668L224.028 22.1333C223.93 22.5 223.881 22.8911 223.881 23.3067C223.881 24.3578 224.382 24.8833 225.385 24.8833C226.069 24.8833 226.656 24.5656 227.145 23.93C227.658 23.2944 228.061 22.4633 228.355 21.4367H229.895C228.99 24.0767 227.866 25.8733 226.521 26.8267C225.201 27.7556 223.869 28.22 222.524 28.22C221.498 28.22 220.667 27.9389 220.031 27.3767C219.42 26.79 219.053 25.9467 218.931 24.8467C218.222 25.8489 217.428 26.6678 216.548 27.3033C215.692 27.9144 214.666 28.22 213.468 28.22ZM215.851 24.6633C216.462 24.6633 217.061 24.3822 217.648 23.82C218.259 23.2333 218.674 22.4389 218.894 21.4367L220.654 13.15C220.654 12.8322 220.532 12.5267 220.288 12.2333C220.043 11.9155 219.664 11.7567 219.151 11.7567C218.173 11.7567 217.293 12.3311 216.511 13.48C215.729 14.6044 215.118 15.9733 214.678 17.5867C214.238 19.1756 214.018 20.5811 214.018 21.8033C214.018 23.0256 214.189 23.8078 214.531 24.15C214.898 24.4922 215.338 24.6633 215.851 24.6633ZM237.901 7.86999C236.386 7.86999 235.212 7.58888 234.381 7.02666C233.55 6.46443 233.135 5.69443 233.135 4.71665C233.135 3.90999 233.355 3.26221 233.795 2.77332C234.259 2.28443 234.858 2.03999 235.591 2.03999C236.3 2.03999 236.85 2.2111 237.241 2.55332C237.657 2.89554 237.865 3.38443 237.865 4.01999C237.865 4.80221 237.571 5.38888 236.985 5.77999C237.302 5.87777 237.791 5.92665 238.451 5.92665C239.625 5.92665 240.712 5.59666 241.715 4.93666C242.717 4.27666 243.511 3.17665 244.098 1.63665H245.638C244.856 3.93443 243.829 5.54777 242.558 6.47666C241.311 7.40555 239.759 7.86999 237.901 7.86999ZM231.998 28.22C230.825 28.22 229.871 27.8533 229.138 27.12C228.429 26.3867 228.075 25.2867 228.075 23.82C228.075 23.2089 228.172 22.4144 228.368 21.4367L230.861 9.66666H236.141L233.501 22.1333C233.428 22.4267 233.391 22.7322 233.391 23.05C233.391 24.1256 233.758 24.6633 234.491 24.6633C235.176 24.6633 235.762 24.3822 236.251 23.82C236.74 23.2333 237.131 22.4389 237.425 21.4367L239.918 9.66666H245.198L242.558 22.1333C242.46 22.5 242.411 22.8911 242.411 23.3067C242.411 23.7956 242.521 24.15 242.741 24.37C242.986 24.5656 243.377 24.6633 243.915 24.6633C244.306 24.6633 244.587 24.6389 244.758 24.59C244.954 24.5167 245.076 24.4678 245.125 24.4433C245.027 25.69 244.599 26.6311 243.841 27.2667C243.084 27.9022 242.155 28.22 241.055 28.22C240.028 28.22 239.197 27.9144 238.561 27.3033C237.95 26.6922 237.584 25.8367 237.461 24.7367C236.63 26.0811 235.75 26.9978 234.821 27.4867C233.917 27.9756 232.976 28.22 231.998 28.22Z" fill="black"/>
<path d="M148.223 13.15C148.296 13.4433 148.333 13.7244 148.333 13.9933C148.333 14.8489 148.003 15.6555 147.343 16.4133C146.707 17.1711 145.901 17.7089 144.923 18.0267C144.507 18.1489 144.018 18.21 143.456 18.21C143.236 20.2878 142.613 22.1211 141.586 23.71C140.584 25.2744 139.264 26.4967 137.626 27.3767C135.988 28.2322 134.155 28.66 132.126 28.66C129.804 28.66 127.971 28.0733 126.626 26.9C125.306 25.7267 124.646 24.1378 124.646 22.1333C124.646 20.7889 124.94 19.4689 125.526 18.1733C126.137 16.8533 126.956 15.7167 127.983 14.7633C129.034 13.81 130.183 13.15 131.43 12.7833V12.6367C130.672 12.0011 130.134 11.3289 129.816 10.62C129.498 9.9111 129.34 9.0311 129.34 7.97999C129.34 6.65999 129.694 5.42554 130.403 4.27666C131.136 3.10332 132.114 2.17443 133.336 1.48999C134.583 0.781097 135.927 0.426653 137.37 0.426653C139.032 0.426653 140.401 0.90332 141.476 1.85665C142.552 2.80999 143.09 4.01999 143.09 5.48666C143.09 6.48888 142.833 7.30777 142.32 7.94332C141.806 8.57888 141.134 8.89666 140.303 8.89666C139.374 8.89666 138.628 8.51777 138.066 7.75999C138.506 7.4911 138.861 7.07555 139.13 6.51332C139.423 5.9511 139.57 5.35221 139.57 4.71665C139.57 4.03221 139.398 3.49443 139.056 3.10332C138.714 2.71221 138.25 2.51665 137.663 2.51665C137.027 2.51665 136.416 2.7611 135.83 3.24999C135.243 3.73888 134.766 4.39888 134.4 5.22999C134.057 6.03666 133.886 6.89221 133.886 7.79666C133.886 9.01888 134.216 10.0578 134.876 10.9133C135.536 11.7444 136.441 12.3067 137.59 12.6V12.7467C136.441 12.9667 135.353 13.5044 134.326 14.36C133.324 15.1911 132.517 16.2178 131.906 17.44C131.32 18.6378 131.026 19.86 131.026 21.1067C131.026 22.3778 131.344 23.3678 131.98 24.0767C132.615 24.7856 133.495 25.14 134.62 25.14C135.671 25.14 136.71 24.8467 137.736 24.26C138.763 23.6733 139.643 22.8544 140.376 21.8033C141.11 20.7522 141.598 19.5667 141.843 18.2467C141.305 18.2467 140.743 18.32 140.156 18.4667C138.812 18.9067 137.846 19.5544 137.26 20.41L137.15 20.4467C136.881 20.1044 136.661 19.6644 136.49 19.1267C136.392 18.8333 136.343 18.5156 136.343 18.1733C136.343 17.3422 136.636 16.5967 137.223 15.9367C137.81 15.2767 138.543 14.8122 139.423 14.5433C140.107 14.3478 141.048 14.2011 142.246 14.1033C143.053 14.0544 143.75 13.9689 144.336 13.8467C144.898 13.6755 145.461 13.3944 146.023 13.0033C146.61 12.5878 147.05 12.1844 147.343 11.7933H147.416C147.783 12.16 148.052 12.6122 148.223 13.15Z" fill="#51C35D"/>
</svg>
