<svg width="26" height="27" viewBox="0 0 26 27" fill="none" xmlns="http://www.w3.org/2000/svg">
<g clip-path="url(#clip0_11_132)">
<path d="M21.1213 24.1463L16.4294 19.2962C17.6948 17.7043 18.4505 15.6652 18.4505 13.4462C18.4505 8.34614 14.4466 4.21082 9.50847 4.21082C4.57038 4.21082 0.566406 8.34614 0.566406 13.4462C0.566406 18.5463 4.57038 22.6816 9.50847 22.6816C11.6654 22.6816 13.6441 21.8923 15.1896 20.5767L19.8814 25.4225C20.4292 25.9399 20.9429 25.6066 21.1213 25.4225C21.4779 25.0585 21.4779 24.5103 21.1213 24.1463ZM2.31151 13.4462C2.31151 9.3416 5.53422 6.01317 9.50847 6.01317C13.4827 6.01317 16.7097 9.3416 16.7097 13.4462C16.7097 17.5509 13.487 20.8793 9.51272 20.8793C5.53847 20.8793 2.31151 17.5509 2.31151 13.4462Z" fill="#333333"/>
</g>
<defs>
<clipPath id="clip0_11_132">
<rect x="0.566406" y="0.538513" width="25.3976" height="26.2308" rx="12.6988" fill="white"/>
</clipPath>
</defs>
</svg>
