<svg width="21" height="24" viewBox="0 0 21 24" fill="none" xmlns="http://www.w3.org/2000/svg">
<path fill-rule="evenodd" clip-rule="evenodd" d="M4.1376 3.69018C5.82577 2.18066 8.11447 1.33335 10.5 1.33335C12.8855 1.33335 15.1742 2.18066 16.8624 3.69018C18.5507 5.1998 19.5 7.2481 19.5 9.38472C19.5 13.0692 17.2021 16.4034 14.8076 18.8656C13.6194 20.0874 12.4292 21.0719 11.536 21.7508C11.1115 22.0734 10.7554 22.3261 10.5 22.5014C10.2446 22.3261 9.88845 22.0734 9.46395 21.7508C8.57078 21.0719 7.3806 20.0874 6.19238 18.8656C3.79793 16.4034 1.5 13.0692 1.5 9.38472C1.5 7.2481 2.44927 5.1998 4.1376 3.69018ZM10.0677 23.8784C10.068 23.8786 10.0682 23.8787 10.5 23.3336C10.9318 23.8787 10.932 23.8786 10.9323 23.8784C10.6733 24.0405 10.3267 24.0405 10.0677 23.8784ZM10.0677 23.8784L10.5 23.3336L10.9323 23.8784L10.935 23.8767L10.9418 23.8724L10.9657 23.8572C10.9861 23.8442 11.0156 23.8252 11.0534 23.8006C11.129 23.7512 11.2382 23.6788 11.3761 23.5846C11.6518 23.3962 12.0428 23.1199 12.5108 22.7642C13.4458 22.0536 14.6931 21.0221 15.9424 19.7375C18.4229 17.1868 21 13.5465 21 9.38472C21 6.89702 19.8948 4.51039 17.9262 2.7501C15.9574 0.989707 13.2862 0 10.5 0C7.71382 0 5.04263 0.989707 3.0738 2.7501C1.1052 4.51039 0 6.89702 0 9.38472C0 13.5465 2.57707 17.1868 5.05763 19.7375C6.3069 21.0221 7.55422 22.0536 8.48917 22.7642C8.95717 23.1199 9.34823 23.3962 9.62393 23.5846C9.76185 23.6788 9.87098 23.7512 9.94658 23.8006C9.98438 23.8252 10.0139 23.8442 10.0343 23.8572L10.0582 23.8724L10.065 23.8767L10.0677 23.8784ZM7.5 9.33346C7.5 7.8607 8.84317 6.66675 10.5 6.66675C12.1568 6.66675 13.5 7.8607 13.5 9.33346C13.5 10.8062 12.1568 12.0002 10.5 12.0002C8.84317 12.0002 7.5 10.8062 7.5 9.33346ZM10.5 5.3334C8.01472 5.3334 6 7.12429 6 9.33346C6 11.5426 8.01472 13.3335 10.5 13.3335C12.9853 13.3335 15 11.5426 15 9.33346C15 7.12429 12.9853 5.3334 10.5 5.3334Z" fill="#333333"/>
<path fill-rule="evenodd" clip-rule="evenodd" d="M4.1376 3.69018C5.82577 2.18066 8.11447 1.33335 10.5 1.33335C12.8855 1.33335 15.1742 2.18066 16.8624 3.69018C18.5507 5.1998 19.5 7.2481 19.5 9.38472C19.5 13.0692 17.2021 16.4034 14.8076 18.8656C13.6194 20.0874 12.4292 21.0719 11.536 21.7508C11.1115 22.0734 10.7554 22.3261 10.5 22.5014C10.2446 22.3261 9.88845 22.0734 9.46395 21.7508C8.57078 21.0719 7.3806 20.0874 6.19238 18.8656C3.79793 16.4034 1.5 13.0692 1.5 9.38472C1.5 7.2481 2.44927 5.1998 4.1376 3.69018ZM6 9.33346C6 7.12429 8.01472 5.3334 10.5 5.3334C12.9853 5.3334 15 7.12429 15 9.33346C15 11.5426 12.9853 13.3335 10.5 13.3335C8.01472 13.3335 6 11.5426 6 9.33346Z" fill="#333333"/>
</svg>
