<?xml version="1.0" standalone="no"?>
<!DOCTYPE svg PUBLIC "-//W3C//DTD SVG 20010904//EN"
 "http://www.w3.org/TR/2001/REC-SVG-20010904/DTD/svg10.dtd">
<svg version="1.0" xmlns="http://www.w3.org/2000/svg"
 width="1280.000000pt" height="1222.000000pt" viewBox="0 0 1280.000000 1222.000000"
 preserveAspectRatio="xMidYMid meet">
<g transform="translate(0.000000,1222.000000) scale(0.100000,-0.100000)"
fill="#000000" stroke="none">
<path d="M6265 12192 c-102 -34 -177 -82 -228 -146 -22 -28 -95 -163 -162
-301 -559 -1140 -1618 -3282 -1628 -3291 -7 -6 -140 -29 -297 -52 -157 -23
-838 -123 -1515 -222 -676 -99 -1414 -208 -1640 -241 -225 -32 -437 -68 -471
-78 -110 -32 -210 -115 -261 -216 -27 -52 -63 -174 -63 -211 0 -43 44 -176 75
-231 35 -59 -83 57 1523 -1502 1234 -1198 1352 -1316 1347 -1340 -3 -14 -43
-246 -90 -516 -46 -269 -125 -725 -175 -1013 -49 -287 -130 -755 -180 -1040
-49 -284 -119 -688 -155 -897 -80 -456 -82 -507 -22 -628 62 -125 151 -199
295 -243 97 -30 127 -29 227 4 50 17 722 363 1812 935 953 499 1741 907 1750
907 10 0 137 -62 283 -139 146 -76 900 -470 1675 -876 776 -406 1448 -757
1495 -779 85 -41 85 -41 205 -41 116 0 123 1 186 32 163 80 259 230 259 401 0
38 -33 255 -75 502 -42 239 -116 668 -165 953 -50 284 -130 750 -180 1035 -49
284 -123 713 -165 952 -41 239 -75 445 -75 456 0 15 399 413 1353 1346 1640
1607 1490 1458 1523 1513 30 52 74 186 74 228 0 39 -34 156 -60 208 -35 68
-70 109 -132 155 -75 55 -150 78 -328 103 -136 19 -1147 161 -1925 271 -192
27 -514 73 -715 101 -1028 145 -1101 156 -1115 170 -7 8 -404 808 -882 1779
-822 1670 -871 1768 -925 1825 -66 71 -125 106 -228 134 -96 27 -127 26 -225
-7z"/>
</g>
</svg>
